<?xml version="1.0" encoding="UTF-8" standalone="no"?>
<svg
   version="1.1"
   style="display:block"
   viewBox="0 0 1920.6718 821.25"
   width="960.33588"
   height="410.625"
   preserveAspectRatio="none"
   id="svg10"
   xmlns="http://www.w3.org/2000/svg"
   xmlns:svg="http://www.w3.org/2000/svg">
  <defs
     id="defs10" />
  <path
     fill="#e4347a"
     d="m 624.0037,47.186029 c 26.469,10.921 58.805,28.412 85.303,41.116 l 204.012,99.207001 131.343,64.26 c 15.23,7.514 44.65,20.512 58.17,28.784 0.59,9.334 0.16,22.553 0.26,32.354 0.14,14.016 0.67,29.489 0.04,43.296 -27.34,39.427 -24.65,38.067 -65.97,61.687 24.06,11.07 50.94,23.02 75.43,32.97 5.96,-66.28 7.89,-129.22 12.52,-194.783 13.82,-4.692 28.41,-11.291 42.12,-16.835 23.04,-9.192 46.01,-18.552 68.91,-28.08 16.54,-7.004 35.48,-15.626 52.44,-21.114 1.22,11.736 6.52,32.818 9.06,45.55 68.42,-39.714 137.18,-81.889 205.47,-122.437 0.76,59.44 -0.07,120.936 -0.11,180.551 11.83,-17.111 43.87,-63.387 57.63,-79.189 6.88,-7.908 54.84,-34.054 67.76,-41.978 37.69,-23.578 75.67,-46.694 113.92,-69.345 15.93,-9.495001 41.18,-25.376001 57.35,-33.056001 0.67,46.926001 -0.48,94.381001 -0.07,141.664001 -10.77,13.557 -24.43,27.687 -36.43,40.409 -43.66,46.328 -84.97,95.251 -128.12,141.943 15.56,8.8 34.15,21.41 49.94,30.99 l 132.91,80.66 c 14.23,8.68 47.62,27.86 59.47,38.08 3.25,2.81 20.23,50.36 22.72,56.93 6.76,17.62 13.62,35.2 20.59,52.74 -27.14,25.14 -55.03,55.72 -80.94,82.7 -26.45,27.54 -55.37,56.41 -80.32,84.99 -13.75,-12.54 -32.54,-32.34 -46.23,-45.99 l -125.48,-126.8 c -21.61,-21.72 -46.6,-47.53 -69.25,-67.86 2.11,30.06 4.73,60.08 7.85,90.05 l 1.8,18.17 c -10.32,18.13 -21.99,35.48 -32.61,53.49 -37.09,-16.04 -73.28,-36.57 -109.89,-53.88 -10.53,-4.98 -21.9,-10.56 -32,-16.24 -10.61,23.79 -29.6,65.01 -43.2,86.46 -2.8,4.41 -44.27,28.67 -51.63,32.51 -15.3,-6.49 -32.18,-15.52 -47.52,-22.52 -49.52,-22.62 -97.95,-48.08 -147.42,-70.69 0.1,-13.08 1.85,-26.88 3.47,-39.88 -30.47,14.44 -63.04,32.86 -93.39,48.54 l -185.958,95.94 c -17.68,-5.82 -39.574,-15.91 -57.36,-22.78 -54.463,-21.03 -108.981,-46.43 -163.584,-66.75 1.538,-10.43 4.335,-25.6 7.325,-35.72 -20.517,11.76 -42.182,22.55 -63.049,33.84 -54.779,29.64 -111.224,58.09 -165.586,88.37 -11.611,-8.05 -35.797,-28.12 -45.68,-38.64 -3.147,-3.35 -10.063,-23.22 -12.329,-29 -7.262,-18.2 -14.406,-36.45 -21.431,-54.75 -27.751,-69.65 -55.116,-139.46 -82.095,-209.42 l -22.929,-57.78 c -4.233,-10.73 -9.929,-26.56 -15.104,-36.18 -18.884,-11.197 -40.336,-20.126 -60.308997,-29.342 -9.079,-4.188 -19.832,-8.131 -27.878,-14.119 -9.476,-7.053 -51.6281999,-84.001 -57.944699954063,-98.69 C 11.085403,223.69403 30.077103,213.12903 42.063703,206.24603 l 52.927,-30.887 c 31.207997,-18.431 62.540997,-36.648 93.998997,-54.65 20.931,-12.228 40.353,-24.055001 62.028,-35.374001 l 111.995,274.444001 c 14.433,35.061 32.27,74.901 45.781,109.821 8.444,0 17.247,-0.22 25.604,0.75 -1.043,-34.78 -0.218,-72.88 -0.129,-108.045 l -0.142,-177.956 c 5.569,-4.169 17.125,-10.947 23.569,-14.932 20.947,-12.762 42.085,-25.207 63.406,-37.332 32.408,-18.813 69.896,-42.338001 102.91,-59.358001 -0.124,-8.433 -0.014,-17.087 -0.008,-25.541 z"
     id="path1" />
  <path
     fill="#fba9c7"
     d="m 644.2077,87.956029 c 42.534,19.526001 86.845,41.843001 128.915,62.573001 l 118.319,57.677 105.05,51.345 c 26.3,12.734 53.64,25.462 79.46,39.094 l 0.31,45.63 -120.09,67.275 c 12.08,6.85 32.59,15.76 45.76,21.69 l 85.23,37.94 c 15.18,6.69 35.31,14.81 49.72,22.29 7.81,18.55 16.04,45.03 22.22,64.66 -39.13,16.36 -78.94,35.75 -117.45,53.95 l -278.763,133.34 c -51.799,-17.14 -112.039,-36.48 -163.937,-51.6 4.211,-17.75 9.091,-41.09 14.643,-58.18 23.965,-16.7 53.223,-35.12 76.082,-52.33 1.551,-48.78 2.5,-97.58 2.847,-146.39 -9.9,4.45 -18.454,8.13 -28.618,12.02 l 0.194,-168.438 c -6.586,-3.606 -13.254,-7.061 -19.998,-10.364 z"
     id="path2" />
  <path
     fill="#e4347a"
     d="m 796.8377,448.09003 c 16.369,5.96 38.55,15.98 55.355,22.88 l 114.839,47.05 -48.445,21.46 c -35.537,15.39 -73.712,34.21 -109.682,48.01 -6.029,-43.53 -5.663,-94.6 -12.067,-139.4 z"
     id="path3" />
  <path
     fill="#fefdff"
     d="m 830.7077,514.91003 c 9.544,4.95 28.498,12.4 39.355,17.29 l -9.481,4.42 c -9.282,3.84 -18.468,7.9 -27.549,12.19 z"
     id="path4" />
  <path
     fill="#e4347a"
     d="m 781.9447,273.02603 c 15.209,6.118 32.501,15.602 47.441,22.863 26.469,12.864 53.442,25.572 79.437,39.297 -9.106,5.713 -27.05,13.997 -37.445,19.306 l -79.251,39.608 c -2.431,-38.276 -9.99,-83.421 -10.182,-121.074 z"
     id="path5" />
  <path
     fill="#fba9c7"
     d="m 599.0417,119.37903 0.729,0.099 c 2.207,2.378 1.272,111.938 1.268,125.819 l 0.154,252.213 c 18.1,-6.33 46.834,-19.51 65.321,-27.3 0.361,32.45 -3.08,65.35 -3.522,97.76 -114.904,54.19 -229.227,109.61 -342.949,166.24 -4.91,-15.03 -13.332,-35.13 -19.188,-50.43 l -37.427,-97.51 -95.464,-248.467 c -4.797,-13.557 -14.124,-43.186 -19.948,-54.856 -9.113,-4.673 -20.726,-9.414 -30.345,-14.062 l -68.891997,-34.047 c 20.245,-13.462 49.046,-28.923 70.818997,-41.608 38.972,-23.013 78.081,-45.792 117.326,-68.338 30.857,73.883 61.191,147.984 90.999,222.296 19.814,48.392 43.634,102.152 61.595,150.872 l 72.27,-0.35 0.289,-297.829 z"
     id="path6" />
  <path
     fill="#fba9c7"
     d="m 1770.1917,118.61103 c 2.14,3.232 1.04,73.879 0.98,83.174 -7.53,9.296 -18.98,21.076 -27.23,30.108 l -41.29,45.621 c -37.02,40.352 -73.62,81.093 -109.78,122.216 25.68,17.17 56.82,35.44 83.36,51.94 59.31,36.91 119.66,72.7 178.81,109.89 10.89,24.05 24.46,59.77 32.92,84.5 -32.22,30.12 -64.21,68.76 -96.01,99.71 -30.18,-27.24 -62.83,-60.18 -92.17,-88.73 l -144.92,-140.68 c -9.27,-9 -71.49,-71.26 -75.75,-72.09 -1.93,2.82 -1.09,5.38 -0.95,9.44 4.94,71.19 13.72,142.78 20.87,213.75 -41.42,-20.22 -82.59,-40.97 -123.49,-62.24 -2.87,-11.76 -5.6,-36.66 -7.38,-49.5 l -13.8,-101.33 -19.95,-139.476 c -2.71,-20.16 -6.23,-43.195 -7.82,-63.129 12.29,-8.982 40.12,-24.839 54.09,-33.066 30.38,-17.896 64.68,-40.417 95.33,-56.956 -0.27,71.878 -0.17,143.757 0.31,215.637 9.42,-11.237 18.15,-24.051 26.77,-35.971 16.18,-22.338 32.23,-44.775 48.13,-67.311 8.36,-11.722 23.99,-36.386 35.16,-43.469 16.77,-10.631 34.73,-21.154 51.75,-31.547 43.8,-27.182 87.82,-54.013 132.06,-80.491 z"
     id="path7" />
  <path
     fill="#fba9c7"
     d="m 1267.0017,228.47903 c 3.21,2.312 22.68,111.125 24.67,121.73 l 39.89,208.371 c 4.54,22.84 8.72,46.82 13.67,69.36 -4.49,10.83 -13.39,26.82 -18.88,38.08 -11.79,24.18 -23.72,49.81 -36.43,73.43 l -97.42,-41.97 -74.71,-32.37 c 0.67,-15.72 2.32,-36.46 4.54,-51.93 22.47,-13.21 44.85,-28.18 67.61,-41.76 -9.01,-27.69 -18.89,-55.08 -27.37,-82.95 -1.83,-6.01 -3.77,-11.99 -6.26,-17.77 -5.05,-2.71 -6.62,-3.16 -12.18,-4.74 l 6.93,-189.236 c 36.25,-17.177 78.9,-31.646 115.94,-48.245 z"
     id="path8" />
  <path
     fill="#e4347a"
     d="M 1100.4117,2.9296875e-5 C 1121.0717,8.4570293 1145.3217,23.146029 1165.4717,33.288029 c 31.51,15.867 62.75,32.577 94.47,48.065 21.92,10.697 43.54,23.652001 65.7,33.621001 -4.65,13.056 -8.04,29.851 -12.56,41.132 -22.02,7.815 -43.97,15.84 -65.84,24.074 -50.7,19.601 -104.69,38.516 -155.89,57.2 -15.39,-28.911 -12.46,-26.688 -9.11,-58.684 l 6.02,-57.443 7.4,-76.576001 c 1.3,-13.59 2.54,-31.602 4.75,-44.676999703125 z"
     id="path9" />
  <path
     fill="#fba9c7"
     d="m 1121.3217,39.977029 c 20.33,9.704 43.44,22.248 63.8,32.711 l 102.8,52.463001 c -19.04,8.102 -40.01,15.324 -59.66,21.859 -39.08,12.899 -83.53,29.386 -122.6,43.551 4.71,-50.502 10.64,-100.227001 15.66,-150.584001 z"
     id="path10" />
</svg>
