<?xml version="1.0" encoding="UTF-8" standalone="no"?>
<svg
   version="1.0"
   width="447.39496pt"
   height="694.1618pt"
   viewBox="0 0 447.39496 694.1618"
   preserveAspectRatio="xMidYMid"
   id="svg115"
   sodipodi:docname="ubik_image.svg"
   inkscape:version="1.4.3 (fcd0343856, 2026-01-01)"
   xmlns:inkscape="http://www.inkscape.org/namespaces/inkscape"
   xmlns:sodipodi="http://sodipodi.sourceforge.net/DTD/sodipodi-0.dtd"
   xmlns="http://www.w3.org/2000/svg"
   xmlns:svg="http://www.w3.org/2000/svg">
  <defs
     id="defs115">
    <linearGradient
       id="swatch124"
       inkscape:swatch="solid">
      <stop
         style="stop-color:#e4347a;stop-opacity:1;"
         offset="0"
         id="stop124" />
    </linearGradient>
  </defs>
  <sodipodi:namedview
     id="namedview115"
     pagecolor="#ffffff"
     bordercolor="#000000"
     borderopacity="0.25"
     inkscape:showpageshadow="2"
     inkscape:pageopacity="0.0"
     inkscape:pagecheckerboard="0"
     inkscape:deskcolor="#d1d1d1"
     inkscape:document-units="pt"
     inkscape:zoom="7.1081282"
     inkscape:cx="404.32585"
     inkscape:cy="49.309747"
     inkscape:window-width="2560"
     inkscape:window-height="1371"
     inkscape:window-x="0"
     inkscape:window-y="0"
     inkscape:window-maximized="1"
     inkscape:current-layer="svg115">
    <inkscape:page
       x="0"
       y="0"
       width="447.39496"
       height="694.1618"
       id="page2"
       margin="0"
       bleed="0" />
  </sodipodi:namedview>
  <path
     d="m 223.28679,575.17085 c -2.51377,14.59541 -5.98516,19.78221 -16.15994,23.52152 -3.7108,1.32687 -7.661,2.77434 -8.61864,3.13621 -1.07733,0.48249 0.95764,1.44748 4.78814,2.41247 3.59109,0.96499 8.13981,2.77433 10.05506,3.85994 4.42902,2.53308 8.97775,11.09733 10.17479,19.05846 1.07731,6.51366 0.7182,7.11678 3.9502,-6.15178 2.03496,-8.44362 14.00528,-17.49037 22.98302,-17.49037 4.18961,0 1.55614,-2.17121 -5.26695,-4.22181 -11.3718,-3.49807 -16.04022,-9.28799 -19.99044,-24.72775 l -1.07733,-4.22181 z"
     id="path3"
     style="fill:#e4347a;fill-opacity:1;stroke:none;stroke-width:0.120163" />
  <path
     d="m 202.06458,222.74858 c -0.19709,4.63258 -5.0582,18.18813 -8.01463,21.37947 -1.97096,2.26482 -4.92739,4.0149 -8.8693,5.25025 l -11.04852,2.02849 10.45723,1.57464 c 5.91286,2.16187 9.72396,6.80605 11.59637,10.30623 0.68983,1.23536 3.1858,4.0033 3.77708,7.09169 l 1.18257,10.11627 2.2666,-11.66046 c 1.18258,-4.01491 3.86273,-6.63787 4.74967,-7.77028 1.8724,-2.16187 12.1859,-8.1255 16.42345,-9.25791 2.8579,-0.72062 -1.16792,-0.26679 -7.17933,-2.53161 -9.16494,-3.50017 -10.6238,-6.8365 -14.17151,-18.57237 -0.88694,-3.08839 -1.16968,-9.08682 -1.16968,-7.95441 z"
     id="path6"
     style="fill:#e4347a;fill-opacity:1;stroke:none;stroke-width:0.100723"
     sodipodi:nodetypes="cccccccccccccc" />
  <path
     d="m 341.98269,0.73877752 c -1.068,-0.0711146 -2.41405,0.50075998 -3.1132,1.37255998 -0.7194,0.90619 -3.68094,7.0550989 -7.03844,14.6671685 -8.6335,19.30204 -7.27394,18.03362 -17.50634,16.67432 -15.9081,-2.17488 -27.65864,1.81223 -36.93164,12.50537 l -3.11866,3.71485 h -6.47461 c -7.5144,0 -18.78577,1.72214 -31.57617,4.80322 -5.0363,1.17806 -12.63167,2.89947 -16.78857,3.80566 -15.9881,3.44356 -27.89798,10.24048 -37.25098,21.38672 -6.2734,7.58036 -11.53713,18.2601 -13.63623,27.391114 1.8546,-3.72506 2.83871,-5.13455 2.77441,-3.75586 0.047,0.0532 -1.31209,3.5822 -3.80419,9.90674 -0.2559,1.5565 -0.53009,2.61475 -0.76319,2.61475 -0.057,0 -0.14468,-0.007 -0.25928,-0.022 -25.2842,63.98401 -141.313788,351.91909 -142.593748,353.53125 -0.63952,0.72496 -1.11914,2.08314 -1.11914,2.8081 0,0.81558 -1.43969,5.07525 -3.27832,9.51563 -1.83862,4.34975 -4.31602,11.23685 -5.51513,15.22412 -1.19911,3.98728 -4.1569705,12.77801 -6.5551805,19.48388 -7.03474995,19.57389 -6.3895544,20.72522 -6.3895544,31.41836 0,6.88711 1.2937275,11.47111 2.4128875,15.0959 15.9880804,53.28448 78.4808874,108.62648 144.4317454,126.11612 14.9488,3.98727 24.06248,3.67285 38.77148,3.67285 23.0229,0 39.73036,-3.31031 50.12256,-12.91602 4.1569,-3.71541 6.23484,-7.70321 21.82324,-41.95752 11.62882,-25.46595 174.4339,-361.92119 175.76514,-364.59521 -0.4324,-0.97739 0.33612,-2.69059 3.30322,-8.57666 5.6757,-11.59935 7.14669,-16.85522 8.26589,-24.46729 0.65095,-11.82675 0.9688,-7.30183 0.58732,-16.44859 -0.1737,-4.1649 -0.62056,-12.91226 -2.45916,-19.98061 -0.8793,-3.26232 -2.31699,-9.33461 -3.19629,-13.59375 -0.8794,-4.16851 -2.71856,-10.23914 -3.99756,-13.50146 -1.359,-3.26231 -2.79862,-7.70403 -3.27832,-9.87891 -2.2383,-11.23687 -9.11224,-26.5503 -16.70654,-37.15283 l -4.07666,-5.70996 0.958,-7.15869 c 0.7195,-5.43719 0.71871,-8.33646 0.0791,-12.32373 -0.553,-2.77638 -0.86761,-5.290224 -0.72071,-5.436044 0,0 -3.17592,-8.32508 -3.59765,-8.88281 -3.09755,-7.8074 -6.40107,-12.10156 -11.03174,-17.57959 -0.29251,-0.34603 2.87811,-7.52244 6.39551,-15.67822 3.5174,-8.15579 6.3955,-15.31342 6.3955,-15.94776 0,-1.63116 -10.15221,-11.69081 -17.18701,-16.94677 C 382.19338,14.965816 368.36254,8.1688964 350.93554,2.5504564 347.7502,1.50052 345.33514,0.96200621 341.98269,0.73877752 Z m 6.27219,8.09734888 c 2.008,0.0988 4.84124,1.4746196 9.87744,3.4116196 4.3967,1.72178 12.78989,5.79921 18.62549,9.06153 10.712,5.89029 27.10002,17.58 27.89942,19.75488 0.3997,1.3593 -5.99602,16.22185 -12.79102,29.54297 l -4.31543,8.51806 5.43604,6.61524 c 6.2354,7.61207 9.51269,14.317284 9.51269,19.573244 0,2.08425 -0.72021,7.15933 -1.59961,11.41846 l -1.67871,7.61279 1.83838,2.80811 c 10.9518,16.76467 19.26681,33.43981 22.22461,44.85791 0.9593,3.71542 2.39689,8.24648 3.19629,9.96826 4.7964,10.78376 8.07398,28.72511 8.23388,44.40234 0.08,11.41811 -1.11843,16.49406 -5.51513,23.74365 -4.8764,7.97455 -15.26841,13.59196 -27.09961,14.77002 -18.9459,1.81239 -56.27848,-5.34543 -94.33008,-18.03222 -4.3967,-1.44991 16.30792,9.24245 23.58252,12.23291 10.8719,4.44037 8.79373,4.44007 -5.75537,-0.0908 -21.9037,-6.79649 -38.05237,-14.13643 -57.71777,-26.37012 -12.2308,-7.52145 -34.77349,-24.28604 -44.44629,-33.07617 -14.4692,-13.04926 -31.89562,-35.16108 -37.89112,-47.93848 -0.7994,-1.8124 -1.51881,-3.17099 -1.67871,-2.98975 -0.6395,0.99682 -9.1931,22.65416 -9.9126,25.46338 -1.0392,3.35293 -0.96007,3.44457 3.83643,11.05664 2.7179,4.16852 4.87647,8.33696 4.87647,9.24317 0,0.9062 -4.55637,13.22971 -10.07227,27.45703 -12.2308,31.62633 -110.950018,237.22679 -110.550288,237.77051 0.3997,0.36248 84.329488,-160.19991 99.837888,-194.72608 20.5447,-45.67242 29.01899,-64.33967 29.25879,-64.70215 0.1599,-0.18124 6.59459,-1.48332 11.07129,3.41016 21.66564,18.26235 28.24251,23.31936 52.98339,40.02832 18.32821,10.73471 25.31405,16.82526 46.35498,24.45996 50.50347,8.7328 40.17411,8.31619 76.79737,8.07569 11.9111,-0.36248 21.91691,-2.30016 25.27441,-3.11573 3.0377,-0.72496 5.67457,-1.17735 5.83447,-0.99609 0.4797,0.54372 -3.67723,9.69621 -20.94433,46.30664 -13.2701,28.09216 -43.72685,93.60923 -63.15235,135.92871 -3.1976,6.97773 -17.82597,38.60414 -32.45507,70.23047 -14.6291,31.62634 -30.05813,65.15638 -34.29493,74.49023 l -7.83398,16.94532 c -9.70812,18.1934 -7.97136,13.9254 -12.15527,25.20996 -2.558,6.70587 5.59921,14.93492 -2.55469,19.28467 -9.2731,4.89347 -17.586,7.068 -29.8169,7.79296 -11.1117,0.63434 -28.6183,-0.27213 -26.6997,-1.45019 0.6395,-0.36248 5.2754,-0.90608 10.3916,-1.26856 14.3893,-0.81558 26.11835,-3.74239 34.75195,-10.90136 3.8371,-3.1717 6.41685,-10.21323 5.77735,-11.02881 -0.2399,-0.18124 -3.35156,0.48054 -7.26856,1.83984 -7.0348,2.44674 -4.16908,9.88896 -25.51318,9.79834 -27.90802,1.34944 -38.29541,5.83008 -38.29541,5.83008 -34.44629,-1.62094 -75.039288,-21.34817 -106.056148,-47.62793 -10.95183,-9.33385 -26.71693,-30.70374 -30.68848,-42.65918 -6.15541,-8.88075 -4.95319,-16.08441 -8.0918,-26.61035 -2.31827,-7.79331 2.62346,-11.12637 25.81641,-70.75488 4.31678,-10.05881 8.71287,-20.48013 9.83203,-23.19873 2.31827,-5.79967 29.65768,-71.04528 38.13135,-91.07227 7.83416,-18.57707 28.698558,-68.59915 49.562988,-119.16504 9.5928,-23.19868 21.82417,-52.56029 27.18017,-65.24707 16.7075,-39.41965 15.18917,-34.61617 15.58887,-49.38721 0.3997,-15.67724 1.99841,-22.38267 7.27441,-30.266604 9.0333,-13.6836 21.58337,-21.0244 41.08887,-24.10547 5.0362,-0.72496 11.91057,-2.35534 15.26807,-3.62402 7.994,-2.80922 20.62546,-4.35045 30.21826,-3.62549 l 7.67431,0.63428 1.91895,-4.16895 c 2.1584,-4.80285 5.75464,-8.6988 10.71094,-11.59863 5.4359,-3.1717 22.54319,-3.26272 29.73779,-0.18164 0.6395,0.27186 2.15896,-1.90247 3.99756,-5.7085 1.6788,-3.35294 6.23583,-12.59586 10.15283,-20.38916 5.1462,-10.25137 6.20105,-13.6352996 9.54785,-13.4706996 z"
     style="fill:#e434bc;stroke-width:0.0851128"
     id="path126"
     sodipodi:nodetypes="scccccsccccccsccscscsccscccccsccccccccccsssccssccccccscccccccccccccccccscccccccccsccscccccccccccccccccccccccccccccccss" />
  <path
     d="m 341.44259,31.270736 c -4.1569,9.1526 -8.8734,19.57389 -10.4722,23.19868 l -2.8779,6.52464 -3.997,-2.35612 c -8.3937,-4.98409 -3.57141,11.19093 -2.0784,14.40856 -0.6396,0.63434 12.2308,12.05244 18.1464,16.13033 8.9533,6.07154 26.1405,13.411754 28.9384,12.324314 0.3997,-0.0906 6.93084,-0.2896 6.93084,-0.2896 l 1.38296,-3.788304 0.3997,-4.07789 c 0.3198,-2.80922 3.8372,-12.05244 10.8719,-28.45464 9.5929,-22.38311 10.3123,-24.37675 9.1932,-25.82666 -1.439,-1.8124 -38.6912,-23.37993 -40.3699,-23.37993 26.57902,17.01957 19.49641,19.47503 -0.6395,4.80285 -3.2776,-2.44673 -6.3953,-4.71223 -6.9548,-5.07471 -0.5596,-0.4531 -3.4375,4.98409 -8.4737,15.85848 z m 40.4498,24.28612 c 2.5581,3.08108 2.9578,4.16852 2.9578,7.70269 0,5.61843 -1.7587,9.15261 -5.6758,11.41811 -3.8371,2.17487 -6.7949,1.72177 -10.3922,-1.63116 -4.4767,-4.25914 -5.8357,-9.69633 -3.5973,-14.5898 3.6772,-8.06517 11.1916,-9.33385 16.7075,-2.89984 z"
     id="path14"
     style="fill:#f2226d;fill-opacity:1;stroke:none;stroke-width:0.0851128"
     sodipodi:nodetypes="cscccccccccccscccscccc" />
  <path
     d="m 304.03433,52.823016 c -1.5189,0.54372 -4.5566,2.99045 -6.715,5.34657 -2.33628,3.17011 -2.8547,6.21132 -3.3575,9.96818 0.7994,9.15261 3.5973,14.31794 13.5898,25.73605 9.5129,10.783764 17.55782,25.123764 35.30462,36.270004 43.06658,26.96737 -32.10069,59.22857 -79.27182,-11.80264 -5.356,-8.06517 -6.4751,-12.14306 -4.5566,-16.67405 2.6381,-6.071534 11.9111,-11.961834 23.4226,-14.771044 6.3152,-1.63116 6.7949,-2.7186 0.7994,-2.08426 -7.5144,0.81558 -19.5055,3.71542 -22.5432,5.43719 -5.5958,3.1717 -10.8719,8.42765 -12.6306,12.596164 -1.4389,3.35294 -1.6787,5.34658 -1.4389,9.87757 0.3997,8.06517 3.8371,14.1367 14.6291,26.37038 14.6291,16.49282 30.777,28.54526 59.1558,44.31312 9.2731,5.16533 20.8645,11.32748 25.7408,13.77422 4.9563,2.44674 8.6336,4.62161 8.1539,4.80285 -12.897,8.48908 -22.38815,7.29998 -42.66501,-0.73109 -8.4737,-3.44356 -20.56779,-10.95887 -30.00069,-17.75536 -18.2264,-13.04926 -35.4136,-29.45146 -45.2463,-43.3163 -5.6758,-8.06517 -11.5913,-20.84257 -13.1102,-28.63588 -1.9985,-9.69632 0.2398,-20.661334 5.6758,-28.454644 1.3589,-1.90301 2.2383,-3.71541 1.9985,-3.98727 -0.7994,-0.9062 -7.65908,1.06845 -17.05416,4.56283 -24.61498,6.30662 -21.10776,33.036004 -21.10776,33.036004 0.0443,8.04432 1.9707,14.91256 5.22642,22.3009 4.9563,11.41811 12.2309,21.93001 23.6624,34.34493 33.4151,36.51981 91.3718,70.95536 136.2983,81.01417 5.5958,1.26868 11.1117,1.63116 24.7815,1.63116 19.0258,-0.0906 25.3411,-1.08744 33.4151,-5.25596 7.5144,-3.89665 14.1494,-13.77422 14.1494,-20.93319 0,-1.44992 -0.7194,-0.9062 -3.5173,2.62798 -3.6773,4.89347 -9.8327,8.88075 -16.8675,11.05562 -5.276,1.63116 -45.17683,2.97454 -47.09543,1.79648 -72.16418,-29.83611 16.23524,-5.59274 20.07244,-6.04584 6.2353,-0.81558 21.58709,0.71519 27.90239,-2.63775 14.8689,-7.88393 16.63247,-7.09956 10.93088,-37.41197 0,0 -8.36906,-24.89647 -13.96356,-38.80411 l -10.41857,-21.26145 c -3.55281,-7.25031 -39.36761,-17.90362 -40.72661,-19.35353 -0.3997,-0.36248 14.12776,2.55941 18.68436,2.28755 10.1524,-0.63434 13.8296,-1.8124 17.1871,-5.61843 3.1977,-3.6248 3.4375,-7.06835 0.9593,-14.49918 -1.5188,-4.712244 -3.1177,-6.524634 -3.1177,-3.715424 0,2.627984 -3.917,6.615254 -7.5943,7.793314 -14.0695,4.44037 -46.2855,-10.511904 -63.2328,-29.451464 -9.0333,-10.0588 -11.5114,-17.94273 -7.0348,-22.65496 l 2.1584,-2.2655 -3.9171,0.0906 c -2.1583,0.0906 -5.1961,0.54372 -6.7149,1.08744 z"
     id="path15"
     style="fill:#f85d96;fill-opacity:1;stroke:none;stroke-width:0.0851128"
     sodipodi:nodetypes="sccccscccscccccccccccscccccccscscccccsccscscccccss" />
  <path
     d="m 160.24393,569.65284 c -2.26822,3.40494 -1.84818,7.01018 0.92409,9.61396 2.77228,2.40349 5.37654,1.60232 7.05672,-2.30334 1.51215,-3.40495 0.58805,-7.31062 -2.01621,-8.91295 -2.60426,-1.70248 -4.0324,-1.30189 -5.9646,1.60233 z"
     id="path22"
     style="fill:#000000;stroke:none;stroke-width:0.0917228" />
  <path
     fill="#e4347a"
     d="m 96.225242,464.7541 c 5.049248,-3.80433 11.927548,-7.9187 17.285328,-11.49949 l 41.48913,-27.3905 26.77762,-17.58382 c 3.1158,-2.03114 8.87489,-6.14872 11.91499,-7.74597 1.668,1.08289 3.87872,2.8648 5.56783,4.10372 2.4152,1.77277 5.12693,3.6553 7.41445,5.55176 3.46211,10.44145 3.55239,9.73778 2.62964,20.89912 4.78524,-3.31105 10.05981,-7.06398 14.70527,-10.60358 -10.62618,-9.68448 -21.16495,-18.14725 -31.82825,-27.47798 0.85766,-3.321 1.48137,-7.03845 2.18,-10.44745 1.19515,-5.71273 2.35339,-11.43302 3.4744,-17.16155 0.78879,-4.15297 1.58894,-8.98587 2.68769,-13.02688 2.15497,1.26707 6.39947,2.93201 8.88327,4.06737 1.42477,-18.55891 2.46918,-37.5011 3.73557,-56.14185 10.26298,7.48403 20.68681,15.545 30.88334,23.2095 -1.50642,-4.52452 -5.57603,-16.77021 -6.62694,-21.50628 -0.52662,-2.36905 0.76155,-15.1608 0.95812,-18.72002 0.49376,-10.44216 1.10126,-20.88168 1.821,-31.31497 0.28909,-4.35305 0.60526,-11.35942 1.23399,-15.52643 8.11066,5.89466 16.09339,12.21521 24.23381,18.20699 1.02596,3.85953 1.80258,8.36125 2.53779,12.35561 2.68212,14.53817 6.09062,28.94706 8.89637,43.43151 3.37535,-1.93054 7.7669,-3.96807 11.30348,-5.84359 l 29.77249,-15.78605 c 3.19498,-1.68422 10.48908,-5.78941 13.66172,-6.8077 0.87146,-0.2785 11.04854,2.48816 12.47205,2.84186 3.8274,0.93318 7.66004,1.84163 11.49909,2.72301 1.04113,8.56731 2.92274,17.98092 4.42701,26.54249 1.53472,8.73974 3.00036,18.13648 4.89332,26.71471 -3.79801,1.09431 -9.44413,2.24755 -13.42475,3.18757 l -36.77535,8.39866 c -6.31326,1.46154 -13.73264,3.06272 -19.93311,4.90732 5.39881,3.44306 10.84955,6.78534 16.35317,10.02042 l 3.32556,1.97943 c 1.86252,4.35839 3.42945,8.88231 5.23536,13.28426 -7.2013,5.23612 -15.06266,9.71852 -22.42376,14.69684 -2.11745,1.43177 -4.43839,2.95173 -6.62407,4.20898 2.79628,5.14236 7.56841,14.17162 9.60515,19.60149 0.4183,1.11717 -0.41297,12.39028 -0.64035,14.33134 -2.94886,2.17611 -6.52221,4.33682 -9.56343,6.4555 -9.8208,6.83608 -19.99656,13.09314 -29.80964,19.92062 -2.22617,-1.69951 -4.3776,-3.81601 -6.40738,-5.80426 -1.18997,7.84806 -1.95122,16.62059 -2.91463,24.60446 l -5.92544,48.90104 c -3.12024,2.73041 -7.47734,5.74113 -10.79006,8.35771 -10.14265,8.01264 -21.03967,15.47486 -31.07751,23.60616 -1.60013,-1.64212 -3.8601,-4.14037 -5.23268,-6.02834 -0.45279,5.54628 -1.2093,11.19367 -1.78451,16.74849 -1.50961,14.58177 -3.42312,29.33893 -4.77298,43.92118 -2.77271,1.25016 -9.11321,3.43031 -12.10104,4.02335 -0.9513,0.18917 -5.18238,-1.00264 -6.44383,-1.29912 -3.98706,-0.90883 -7.96855,-1.84729 -11.94413,-2.81572 -15.25318,-3.48578 -30.48729,-7.06842 -45.70095,-10.74605 l -12.64263,-2.90993 c -2.34485,-0.54542 -5.738078,-1.45796 -8.006128,-1.67534 -4.185,2.27658 -8.29056,5.34961 -12.26735,8.09501 -1.80731,1.24836 -3.77428,2.85692 -5.76394,3.67395 -2.34557,0.95815 -20.57792,-0.63217 -23.85061,-1.27602 -0.0195,-3.19464 0.45494,-8.2873 0.71723,-11.52907 l 1.07381,-14.37808 c 0.59578,-8.50582 1.24302,-17.00895 1.9421,-25.50894 0.42235,-5.68761 0.73213,-11.02714 1.39946,-16.74439 l 60.420768,13.21493 c 7.73406,1.66379 16.69474,3.27153 24.29374,5.09839 1.0145,-1.66103 2.0347,-3.42077 3.20483,-4.94027 -6.07714,-4.26149 -12.49772,-9.31718 -18.50485,-13.85033 l -30.470008,-22.8259 c -0.0447,-1.63069 0.1841,-4.77436 0.27662,-6.55393 0.33283,-5.75929 0.74302,-11.51565 1.2298,-17.26678 0.67461,-8.79107 1.15311,-19.18655 2.207178,-27.86647 -1.458308,-1.05835 -2.923938,-2.19454 -4.370698,-3.28028 z"
     id="path1-5"
     style="display:block;stroke-width:0.221569"
     inkscape:transform-center-x="-10.184814"
     inkscape:transform-center-y="7.3453828" />
  <path
     fill="#fba9c7"
     d="m 108.61614,465.36975 c 7.4019,-5.29139 15.40869,-10.57505 22.94188,-15.64464 l 21.09322,-14.33037 18.74797,-12.70719 c 4.67563,-3.19533 9.45981,-6.57604 14.2195,-9.58216 l 6.86378,5.22355 -2.57358,29.10012 c 2.29733,-1.3518 5.79085,-3.96189 8.06536,-5.61361 l 14.65431,-10.73998 c 2.59998,-1.92061 5.93508,-4.55451 8.57234,-6.2471 3.59926,0.75976 8.43003,2.36215 12.01952,3.53615 -1.67109,8.8387 -2.96018,18.14838 -4.29053,27.08973 l -9.39103,64.90906 c -8.02019,7.21176 -17.25856,15.6674 -24.98681,23.13069 -2.21379,-2.80089 -5.19401,-6.36733 -7.16795,-9.33008 0.0229,-6.18576 0.34648,-13.51031 0.17706,-19.55903 -7.13928,-5.91859 -14.34503,-11.73258 -21.61571,-17.44099 -0.37615,2.27219 -0.72594,4.21625 -1.21384,6.47059 l -25.19582,-19.52043 c -1.23324,0.75212 -2.45257,1.53602 -3.65728,2.3506 z"
     id="path2-1"
     style="display:block;stroke-width:0.196865" />
  <path
     fill="#e4347a"
     d="m 177.34289,482.56831 c 2.39755,-2.1574 5.91302,-4.86166 8.48184,-6.98837 l 17.53905,-14.54477 -1.73079,10.78743 c -1.31799,7.87381 -2.41978,16.58948 -3.99789,24.3588 -6.55481,-3.86031 -13.52692,-9.6748 -20.29221,-13.61309 z"
     id="path3-2"
     style="display:block;stroke-width:0.185951" />
  <path
     fill="#fefdff"
     d="m 189.7803,484.2406 c 1.60056,-1.09136 4.45186,-3.52781 6.17065,-4.85316 l -0.30854,2.13606 c -0.3688,2.03615 -0.69836,4.08061 -0.98611,6.13284 z"
     id="path4-9"
     style="display:block;stroke-width:0.185951" />
  <path
     fill="#e4347a"
     d="m 151.88426,465.42701 c 2.30735,-1.93891 5.27748,-3.85876 7.71564,-5.62258 4.31976,-3.125 8.66665,-6.35461 13.05864,-9.30084 -0.0948,2.21682 -0.68991,6.25043 -0.96472,8.6444 l -2.21381,18.15427 c -5.48662,-3.8904 -12.41075,-7.66819 -17.59575,-11.87525 z"
     id="path5-9"
     style="display:block;stroke-width:0.185951" />
  <path
     fill="#fba9c7"
     d="m 104.08531,480.12632 0.0942,-0.12726 c 0.60354,-0.12616 17.32216,13.77319 19.45274,15.51245 l 38.73629,31.55441 c 0.98253,-4.27053 2.06181,-11.44219 2.86219,-15.96993 5.02043,3.99487 9.70008,8.77544 14.62782,12.91912 -4.0881,28.86442 -7.9245,57.77157 -11.51024,86.71448 -2.83767,-0.93869 -6.833,-1.8374 -9.814,-2.62834 l -19.01112,-5.01929 -48.452798,-12.77178 c -2.59915,-0.77612 -8.15495,-2.69435 -10.57546,-3.03662 -1.70145,1.1659 -3.68322,2.80357 -5.43538,4.06968 l -12.66585,8.97379 c 0.1194,-5.57577 0.85565,-13.04596 1.25926,-18.81812 0.67526,-10.37026 1.40123,-20.73748 2.17769,-31.10164 14.6744,3.32307 29.32589,6.774 43.952838,10.3525 9.56872,2.25262 20.39383,4.40805 29.81292,7.05796 l 7.7499,-13.9304 -45.69155,-37.35186 z"
     id="path6-1"
     style="display:block;stroke-width:0.207414" />
  <path
     fill="#fba9c7"
     d="m 249.79334,252.87742 c 0.74195,-0.007 11.68574,9.10352 13.13506,10.28552 0.62642,2.62584 1.2101,6.32211 1.71581,9.0539 l 2.59679,13.72444 c 2.242,12.23546 4.59095,24.43923 7.04836,36.60582 5.51813,-2.79999 11.8102,-6.51668 17.31828,-9.56729 12.31462,-6.8125 24.56875,-13.96723 36.90967,-20.71379 4.96644,0.92456 12.05589,2.80104 16.86131,4.28048 1.16808,10.01954 3.69596,21.06774 5.04028,31.11071 -7.59123,2.40125 -16.34717,4.56207 -24.05108,6.63615 l -37.99867,10.28724 c -2.43086,0.65789 -19.03667,4.84029 -19.63583,5.55892 0.23184,0.72684 0.72278,0.88796 1.37507,1.3705 11.69596,8.00788 23.87425,15.3306 35.77755,22.88691 -7.72989,5.45742 -15.51522,10.80002 -23.35248,16.02453 -2.15791,-0.92654 -6.35866,-3.53484 -8.56586,-4.80803 l -17.39092,-10.09471 -24.04325,-13.71046 c -3.45596,-2.01539 -7.45162,-4.23627 -10.74898,-6.43945 -0.0532,-3.50606 0.52953,-10.88098 0.77977,-14.61686 0.54398,-8.1243 0.79516,-17.5887 1.58121,-25.59451 11.22787,9.10489 22.49703,18.13782 33.8082,27.0973 -0.72226,-3.23542 -1.76756,-6.53621 -2.68487,-9.70318 -1.71625,-5.93988 -3.46234,-11.8672 -5.24032,-17.77802 -0.91541,-3.09147 -3.05606,-9.21817 -2.93502,-12.26875 0.18241,-4.57944 0.51276,-9.37528 0.75982,-13.97313 0.56797,-11.8873 1.21483,-23.77275 1.94131,-35.65629 z"
     id="path7-4"
     style="display:block;stroke-width:0.210095" />
  <path
     fill="#fba9c7"
     d="m 210.93274,371.99884 c 0.62711,-0.29426 17.43679,8.59519 19.08403,9.44562 l 32.44135,16.57246 c 3.5721,1.78764 7.26589,3.76592 10.8364,5.44887 1.05276,1.9953 2.38785,5.33389 3.40303,7.55058 2.17998,4.76021 4.54555,9.70779 6.55979,14.56381 l -15.161,12.10703 -11.65193,9.26392 c -2.09232,-1.88596 -4.77894,-4.50662 -6.68744,-6.63235 0.356,-5.37009 0.46187,-10.92308 0.79512,-16.38527 -4.66912,-1.56126 -9.38081,-2.93861 -14.02343,-4.61178 -1.00124,-0.3606 -2.00903,-0.69893 -3.04251,-0.9195 -0.85922,0.56737 -1.07227,0.78845 -1.82582,1.57076 l -25.29708,-22.5079 c 1.14155,-8.19793 3.2725,-17.19686 4.56949,-25.46625 z"
     id="path8-1"
     style="display:block;stroke-width:0.185951" />
  <path
     fill="#e4347a"
     d="m 134.75984,356.15053 c 4.30088,-3.25264 10.24035,-6.40453 14.78973,-9.31133 7.11513,-4.54599 14.35269,-8.91515 21.42459,-13.55872 4.8859,-3.21 10.15502,-6.03941 14.93658,-9.4023 1.83083,2.82571 4.527,5.90374 6.04287,8.45307 -1.43578,5.82187 -2.82277,11.65797 -4.1602,17.5061 -3.00475,13.6297 -6.57046,27.86951 -9.81265,41.4779 -7.4344,-0.74097 -6.63302,-1.0591 -12.17836,-6.256 l -9.95498,-9.33169 -13.35373,-12.30443 c -2.3718,-2.18085 -5.57833,-4.96796 -7.73363,-7.27267 z"
     id="path9-3"
     style="display:block;stroke-width:0.242053" />
  <path
     fill="#fba9c7"
     d="m 150.88079,359.23154 c 3.29353,-2.41999 4.81925,-6.73349 8.2198,-9.07331 l 24.39765,-16.70699 c -0.72583,4.20242 -3.14488,15.91678 -4.14469,20.04794 -2.00173,8.20533 -7.49498,17.04953 -9.32193,25.39558 -6.47498,-6.50119 -12.72577,-13.12534 -19.15098,-19.66365 z"
     id="path10-2"
     style="display:block;stroke-width:0.185951"
     sodipodi:nodetypes="ccccccc" />
  <path
     d="m 60.379062,488.83238 c -0.15456,3.41227 -3.96669,13.39701 -6.28515,15.74769 -1.54565,1.66822 -3.86411,2.9573 -6.9554,3.86724 l -8.66436,1.49414 8.20067,1.15984 c 4.63692,1.5924 7.62562,5.01321 9.09399,7.59137 0.54097,0.90994 2.49833,2.94876 2.96202,5.2236 l 0.92738,7.45144 1.77749,-8.58886 c 0.92739,-2.9573 3.02919,-4.88932 3.72474,-5.72343 1.46836,-1.5924 9.5563,-5.98508 12.87943,-6.81919 2.2412,-0.53079 -0.91589,-0.19652 -5.6301,-1.86474 -7.18723,-2.57815 -8.33129,-5.03563 -11.11343,-13.68003 -0.69555,-2.27485 -0.91728,-6.69318 -0.91728,-5.85907 z"
     id="path6-3"
     style="fill:#e4347a;fill-opacity:1;stroke:none;stroke-width:0.0765516"
     sodipodi:nodetypes="cccccccccccccc" />
</svg>
